<mxfile host="app.diagrams.net" agent="Mozilla/5.0 (Windows NT 10.0; Win64; x64) AppleWebKit/537.36 (KHTML, like Gecko) Chrome/129.0.0.0 Safari/537.36" version="24.7.12">
  <diagram id="C5RBs43oDa-KdzZeNtuy" name="Page-1">
    <mxGraphModel dx="1549" dy="2509" grid="1" gridSize="10" guides="1" tooltips="1" connect="1" arrows="1" fold="1" page="1" pageScale="1" pageWidth="827" pageHeight="1169" math="0" shadow="0">
      <root>
        <mxCell id="WIyWlLk6GJQsqaUBKTNV-0" />
        <mxCell id="WIyWlLk6GJQsqaUBKTNV-1" parent="WIyWlLk6GJQsqaUBKTNV-0" />
        <mxCell id="e_ahyF45cDqSRZOr-uR8-28" value="" style="rounded=1;whiteSpace=wrap;html=1;fontSize=12;glass=0;strokeWidth=1;shadow=0;fillColor=#B7A3C2;gradientColor=none;fontFamily=Helvetica;fontStyle=1" vertex="1" parent="WIyWlLk6GJQsqaUBKTNV-1">
          <mxGeometry x="65" y="450" width="875" height="580" as="geometry" />
        </mxCell>
        <mxCell id="e_ahyF45cDqSRZOr-uR8-18" value="" style="rounded=1;whiteSpace=wrap;html=1;fontSize=12;glass=0;strokeWidth=1;shadow=0;fillColor=#3D9EFF;fontFamily=Helvetica;fontStyle=1" vertex="1" parent="WIyWlLk6GJQsqaUBKTNV-1">
          <mxGeometry x="302.5" y="50" width="235" height="370" as="geometry" />
        </mxCell>
        <mxCell id="e_ahyF45cDqSRZOr-uR8-26" style="edgeStyle=orthogonalEdgeStyle;rounded=0;orthogonalLoop=1;jettySize=auto;html=1;entryX=0;entryY=0.5;entryDx=0;entryDy=0;fontFamily=Helvetica;fontSize=12;fontStyle=1" edge="1" parent="WIyWlLk6GJQsqaUBKTNV-1" source="WIyWlLk6GJQsqaUBKTNV-3" target="e_ahyF45cDqSRZOr-uR8-3">
          <mxGeometry relative="1" as="geometry" />
        </mxCell>
        <mxCell id="WIyWlLk6GJQsqaUBKTNV-3" value="SETUP" style="rounded=1;whiteSpace=wrap;html=1;fontSize=12;glass=0;strokeWidth=1;shadow=0;fontFamily=Helvetica;fontStyle=1" parent="WIyWlLk6GJQsqaUBKTNV-1" vertex="1">
          <mxGeometry x="160" y="80" width="120" height="40" as="geometry" />
        </mxCell>
        <mxCell id="e_ahyF45cDqSRZOr-uR8-1" value="" style="edgeStyle=orthogonalEdgeStyle;rounded=0;orthogonalLoop=1;jettySize=auto;html=1;fontFamily=Helvetica;fontSize=12;fontStyle=1" edge="1" parent="WIyWlLk6GJQsqaUBKTNV-1" source="e_ahyF45cDqSRZOr-uR8-0" target="WIyWlLk6GJQsqaUBKTNV-3">
          <mxGeometry relative="1" as="geometry" />
        </mxCell>
        <mxCell id="e_ahyF45cDqSRZOr-uR8-0" value="START" style="ellipse;whiteSpace=wrap;html=1;fontFamily=Helvetica;fontSize=12;fontStyle=1" vertex="1" parent="WIyWlLk6GJQsqaUBKTNV-1">
          <mxGeometry x="160" y="-30" width="120" height="80" as="geometry" />
        </mxCell>
        <mxCell id="e_ahyF45cDqSRZOr-uR8-6" value="" style="edgeStyle=orthogonalEdgeStyle;rounded=0;orthogonalLoop=1;jettySize=auto;html=1;fontFamily=Helvetica;fontSize=12;fontStyle=1" edge="1" parent="WIyWlLk6GJQsqaUBKTNV-1" source="e_ahyF45cDqSRZOr-uR8-3" target="e_ahyF45cDqSRZOr-uR8-5">
          <mxGeometry relative="1" as="geometry" />
        </mxCell>
        <mxCell id="e_ahyF45cDqSRZOr-uR8-3" value="BEGIN SERIAL" style="rounded=1;whiteSpace=wrap;html=1;fontSize=12;glass=0;strokeWidth=1;shadow=0;fontFamily=Helvetica;fontStyle=1" vertex="1" parent="WIyWlLk6GJQsqaUBKTNV-1">
          <mxGeometry x="357.5" y="80" width="120" height="40" as="geometry" />
        </mxCell>
        <mxCell id="e_ahyF45cDqSRZOr-uR8-11" value="" style="edgeStyle=orthogonalEdgeStyle;rounded=0;orthogonalLoop=1;jettySize=auto;html=1;fontFamily=Helvetica;fontSize=12;fontStyle=1" edge="1" parent="WIyWlLk6GJQsqaUBKTNV-1" source="e_ahyF45cDqSRZOr-uR8-5" target="e_ahyF45cDqSRZOr-uR8-9">
          <mxGeometry relative="1" as="geometry" />
        </mxCell>
        <mxCell id="e_ahyF45cDqSRZOr-uR8-5" value="&lt;font style=&quot;font-size: 11px;&quot;&gt;INITIALIZE MPU6050&lt;/font&gt;" style="rounded=1;whiteSpace=wrap;html=1;fontSize=12;glass=0;strokeWidth=1;shadow=0;fontFamily=Helvetica;fontStyle=1" vertex="1" parent="WIyWlLk6GJQsqaUBKTNV-1">
          <mxGeometry x="357.5" y="150" width="120" height="40" as="geometry" />
        </mxCell>
        <mxCell id="e_ahyF45cDqSRZOr-uR8-13" value="" style="edgeStyle=orthogonalEdgeStyle;rounded=0;orthogonalLoop=1;jettySize=auto;html=1;fontFamily=Helvetica;fontSize=12;fontStyle=1" edge="1" parent="WIyWlLk6GJQsqaUBKTNV-1" source="e_ahyF45cDqSRZOr-uR8-9" target="e_ahyF45cDqSRZOr-uR8-12">
          <mxGeometry relative="1" as="geometry" />
        </mxCell>
        <mxCell id="e_ahyF45cDqSRZOr-uR8-9" value="&lt;span style=&quot;font-size: 12px;&quot;&gt;CALCULATE MPU6050 ERRORS&lt;/span&gt;" style="rounded=1;whiteSpace=wrap;html=1;fontSize=12;glass=0;strokeWidth=1;shadow=0;fontFamily=Helvetica;fontStyle=1" vertex="1" parent="WIyWlLk6GJQsqaUBKTNV-1">
          <mxGeometry x="357.5" y="220" width="120" height="40" as="geometry" />
        </mxCell>
        <mxCell id="e_ahyF45cDqSRZOr-uR8-15" value="" style="edgeStyle=orthogonalEdgeStyle;rounded=0;orthogonalLoop=1;jettySize=auto;html=1;fontFamily=Helvetica;fontSize=12;fontStyle=1" edge="1" parent="WIyWlLk6GJQsqaUBKTNV-1" source="e_ahyF45cDqSRZOr-uR8-12" target="e_ahyF45cDqSRZOr-uR8-14">
          <mxGeometry relative="1" as="geometry" />
        </mxCell>
        <mxCell id="e_ahyF45cDqSRZOr-uR8-12" value="&lt;span style=&quot;font-size: 12px;&quot;&gt;SET PINS CONFIGURATIONS&lt;/span&gt;" style="rounded=1;whiteSpace=wrap;html=1;fontSize=12;glass=0;strokeWidth=1;shadow=0;fontFamily=Helvetica;fontStyle=1" vertex="1" parent="WIyWlLk6GJQsqaUBKTNV-1">
          <mxGeometry x="357.5" y="290" width="120" height="40" as="geometry" />
        </mxCell>
        <mxCell id="e_ahyF45cDqSRZOr-uR8-27" style="edgeStyle=orthogonalEdgeStyle;rounded=0;orthogonalLoop=1;jettySize=auto;html=1;entryX=1;entryY=0.5;entryDx=0;entryDy=0;fontFamily=Helvetica;fontSize=12;fontStyle=1" edge="1" parent="WIyWlLk6GJQsqaUBKTNV-1" source="e_ahyF45cDqSRZOr-uR8-14" target="e_ahyF45cDqSRZOr-uR8-22">
          <mxGeometry relative="1" as="geometry" />
        </mxCell>
        <mxCell id="e_ahyF45cDqSRZOr-uR8-14" value="SELECT DEFAULT DIRECTION" style="rounded=1;whiteSpace=wrap;html=1;fontSize=12;glass=0;strokeWidth=1;shadow=0;fontFamily=Helvetica;fontStyle=1" vertex="1" parent="WIyWlLk6GJQsqaUBKTNV-1">
          <mxGeometry x="356.25" y="355" width="122.5" height="50" as="geometry" />
        </mxCell>
        <mxCell id="e_ahyF45cDqSRZOr-uR8-30" style="edgeStyle=orthogonalEdgeStyle;rounded=0;orthogonalLoop=1;jettySize=auto;html=1;entryX=0.5;entryY=0;entryDx=0;entryDy=0;fontFamily=Helvetica;fontSize=12;fontStyle=1" edge="1" parent="WIyWlLk6GJQsqaUBKTNV-1" source="e_ahyF45cDqSRZOr-uR8-22" target="e_ahyF45cDqSRZOr-uR8-29">
          <mxGeometry relative="1" as="geometry" />
        </mxCell>
        <mxCell id="e_ahyF45cDqSRZOr-uR8-22" value="LOOP" style="rounded=1;whiteSpace=wrap;html=1;fontSize=12;glass=0;strokeWidth=1;shadow=0;fontFamily=Helvetica;fontStyle=1" vertex="1" parent="WIyWlLk6GJQsqaUBKTNV-1">
          <mxGeometry x="160" y="360" width="120" height="40" as="geometry" />
        </mxCell>
        <mxCell id="e_ahyF45cDqSRZOr-uR8-32" value="" style="edgeStyle=orthogonalEdgeStyle;rounded=0;orthogonalLoop=1;jettySize=auto;html=1;" edge="1" parent="WIyWlLk6GJQsqaUBKTNV-1" source="e_ahyF45cDqSRZOr-uR8-29" target="e_ahyF45cDqSRZOr-uR8-31">
          <mxGeometry relative="1" as="geometry" />
        </mxCell>
        <mxCell id="e_ahyF45cDqSRZOr-uR8-29" value="&lt;font style=&quot;font-size: 12px;&quot;&gt;UPDATE MPU Readings&lt;/font&gt;" style="rounded=1;whiteSpace=wrap;html=1;fontSize=12;glass=0;strokeWidth=1;shadow=0;fontFamily=Helvetica;fontStyle=1" vertex="1" parent="WIyWlLk6GJQsqaUBKTNV-1">
          <mxGeometry x="158.75" y="490" width="122.5" height="50" as="geometry" />
        </mxCell>
        <mxCell id="e_ahyF45cDqSRZOr-uR8-34" value="" style="edgeStyle=orthogonalEdgeStyle;rounded=0;orthogonalLoop=1;jettySize=auto;html=1;" edge="1" parent="WIyWlLk6GJQsqaUBKTNV-1" source="e_ahyF45cDqSRZOr-uR8-31" target="e_ahyF45cDqSRZOr-uR8-33">
          <mxGeometry relative="1" as="geometry" />
        </mxCell>
        <mxCell id="e_ahyF45cDqSRZOr-uR8-31" value="&lt;font style=&quot;font-size: 12px;&quot;&gt;SEND DATA TO ESP&lt;/font&gt;" style="rounded=1;whiteSpace=wrap;html=1;fontSize=12;glass=0;strokeWidth=1;shadow=0;fontFamily=Helvetica;fontStyle=1" vertex="1" parent="WIyWlLk6GJQsqaUBKTNV-1">
          <mxGeometry x="330" y="490" width="122.5" height="50" as="geometry" />
        </mxCell>
        <mxCell id="e_ahyF45cDqSRZOr-uR8-36" style="edgeStyle=orthogonalEdgeStyle;rounded=0;orthogonalLoop=1;jettySize=auto;html=1;" edge="1" parent="WIyWlLk6GJQsqaUBKTNV-1" source="e_ahyF45cDqSRZOr-uR8-33" target="e_ahyF45cDqSRZOr-uR8-29">
          <mxGeometry relative="1" as="geometry" />
        </mxCell>
        <mxCell id="e_ahyF45cDqSRZOr-uR8-39" style="edgeStyle=orthogonalEdgeStyle;rounded=0;orthogonalLoop=1;jettySize=auto;html=1;entryX=0.5;entryY=0;entryDx=0;entryDy=0;" edge="1" parent="WIyWlLk6GJQsqaUBKTNV-1" source="e_ahyF45cDqSRZOr-uR8-33" target="e_ahyF45cDqSRZOr-uR8-38">
          <mxGeometry relative="1" as="geometry" />
        </mxCell>
        <mxCell id="e_ahyF45cDqSRZOr-uR8-33" value="&lt;b&gt;SERIAL AVAILABE ?&lt;/b&gt;" style="rhombus;whiteSpace=wrap;html=1;" vertex="1" parent="WIyWlLk6GJQsqaUBKTNV-1">
          <mxGeometry x="317.19" y="570" width="148.12" height="125" as="geometry" />
        </mxCell>
        <mxCell id="e_ahyF45cDqSRZOr-uR8-37" value="&lt;font style=&quot;font-size: 18px;&quot; color=&quot;#ff0000&quot;&gt;NO&lt;/font&gt;" style="text;html=1;align=center;verticalAlign=middle;whiteSpace=wrap;rounded=0;fontStyle=1;fontSize=18;" vertex="1" parent="WIyWlLk6GJQsqaUBKTNV-1">
          <mxGeometry x="284.38" y="610" width="32.81" height="20" as="geometry" />
        </mxCell>
        <mxCell id="e_ahyF45cDqSRZOr-uR8-45" style="edgeStyle=orthogonalEdgeStyle;rounded=0;orthogonalLoop=1;jettySize=auto;html=1;entryX=0;entryY=0.5;entryDx=0;entryDy=0;" edge="1" parent="WIyWlLk6GJQsqaUBKTNV-1" source="e_ahyF45cDqSRZOr-uR8-38" target="e_ahyF45cDqSRZOr-uR8-43">
          <mxGeometry relative="1" as="geometry" />
        </mxCell>
        <mxCell id="e_ahyF45cDqSRZOr-uR8-38" value="&lt;div&gt;&lt;font style=&quot;font-size: 12px;&quot;&gt;CHECK COMMAND RECIEVED&lt;/font&gt;&lt;/div&gt;" style="rounded=1;whiteSpace=wrap;html=1;fontSize=12;glass=0;strokeWidth=1;shadow=0;fontFamily=Helvetica;fontStyle=1" vertex="1" parent="WIyWlLk6GJQsqaUBKTNV-1">
          <mxGeometry x="330" y="740" width="122.5" height="50" as="geometry" />
        </mxCell>
        <mxCell id="e_ahyF45cDqSRZOr-uR8-40" value="&lt;font color=&quot;#004700&quot; style=&quot;font-size: 18px;&quot;&gt;YES&lt;/font&gt;" style="text;html=1;align=center;verticalAlign=middle;whiteSpace=wrap;rounded=0;fontStyle=1;fontSize=18;" vertex="1" parent="WIyWlLk6GJQsqaUBKTNV-1">
          <mxGeometry x="350" y="710" width="40" height="15" as="geometry" />
        </mxCell>
        <mxCell id="e_ahyF45cDqSRZOr-uR8-47" style="edgeStyle=orthogonalEdgeStyle;rounded=0;orthogonalLoop=1;jettySize=auto;html=1;entryX=0.5;entryY=1;entryDx=0;entryDy=0;" edge="1" parent="WIyWlLk6GJQsqaUBKTNV-1" source="e_ahyF45cDqSRZOr-uR8-43" target="e_ahyF45cDqSRZOr-uR8-46">
          <mxGeometry relative="1" as="geometry" />
        </mxCell>
        <mxCell id="e_ahyF45cDqSRZOr-uR8-65" style="edgeStyle=orthogonalEdgeStyle;rounded=0;orthogonalLoop=1;jettySize=auto;html=1;entryX=0;entryY=0.5;entryDx=0;entryDy=0;exitX=0.5;exitY=1;exitDx=0;exitDy=0;" edge="1" parent="WIyWlLk6GJQsqaUBKTNV-1" source="e_ahyF45cDqSRZOr-uR8-43" target="e_ahyF45cDqSRZOr-uR8-29">
          <mxGeometry relative="1" as="geometry" />
        </mxCell>
        <mxCell id="e_ahyF45cDqSRZOr-uR8-43" value="&lt;font style=&quot;font-size: 13px;&quot;&gt;&lt;b style=&quot;&quot;&gt;COMMAND IS&lt;/b&gt;&lt;/font&gt;&lt;div style=&quot;font-size: 13px;&quot;&gt;&lt;font style=&quot;font-size: 13px;&quot;&gt;&lt;b style=&quot;&quot;&gt;SEQUENCE ?&lt;/b&gt;&lt;/font&gt;&lt;/div&gt;" style="rhombus;whiteSpace=wrap;html=1;" vertex="1" parent="WIyWlLk6GJQsqaUBKTNV-1">
          <mxGeometry x="520" y="686.25" width="160" height="157.5" as="geometry" />
        </mxCell>
        <mxCell id="e_ahyF45cDqSRZOr-uR8-53" style="edgeStyle=orthogonalEdgeStyle;rounded=0;orthogonalLoop=1;jettySize=auto;html=1;" edge="1" parent="WIyWlLk6GJQsqaUBKTNV-1" source="e_ahyF45cDqSRZOr-uR8-46" target="e_ahyF45cDqSRZOr-uR8-52">
          <mxGeometry relative="1" as="geometry" />
        </mxCell>
        <mxCell id="e_ahyF45cDqSRZOr-uR8-46" value="&lt;font style=&quot;font-size: 12px;&quot;&gt;PERFORM SEQUENCE&lt;/font&gt;" style="rounded=1;whiteSpace=wrap;html=1;fontSize=12;glass=0;strokeWidth=1;shadow=0;fontFamily=Helvetica;fontStyle=1;fillColor=#72FF47;" vertex="1" parent="WIyWlLk6GJQsqaUBKTNV-1">
          <mxGeometry x="529.38" y="580" width="141.25" height="50" as="geometry" />
        </mxCell>
        <mxCell id="e_ahyF45cDqSRZOr-uR8-49" value="&lt;font color=&quot;#004700&quot; style=&quot;font-size: 18px;&quot;&gt;YES&lt;/font&gt;" style="text;html=1;align=center;verticalAlign=middle;whiteSpace=wrap;rounded=0;fontStyle=1;fontSize=18;" vertex="1" parent="WIyWlLk6GJQsqaUBKTNV-1">
          <mxGeometry x="560" y="656.25" width="37.5" height="23.75" as="geometry" />
        </mxCell>
        <mxCell id="e_ahyF45cDqSRZOr-uR8-55" style="edgeStyle=orthogonalEdgeStyle;rounded=0;orthogonalLoop=1;jettySize=auto;html=1;entryX=0.5;entryY=0;entryDx=0;entryDy=0;" edge="1" parent="WIyWlLk6GJQsqaUBKTNV-1" source="e_ahyF45cDqSRZOr-uR8-52" target="e_ahyF45cDqSRZOr-uR8-54">
          <mxGeometry relative="1" as="geometry" />
        </mxCell>
        <mxCell id="e_ahyF45cDqSRZOr-uR8-68" style="edgeStyle=orthogonalEdgeStyle;rounded=0;orthogonalLoop=1;jettySize=auto;html=1;entryX=1;entryY=1;entryDx=0;entryDy=0;" edge="1" parent="WIyWlLk6GJQsqaUBKTNV-1" source="e_ahyF45cDqSRZOr-uR8-52" target="e_ahyF45cDqSRZOr-uR8-66">
          <mxGeometry relative="1" as="geometry">
            <Array as="points">
              <mxPoint x="710" y="765" />
              <mxPoint x="710" y="864" />
            </Array>
          </mxGeometry>
        </mxCell>
        <mxCell id="e_ahyF45cDqSRZOr-uR8-52" value="&lt;b style=&quot;font-size: 13px;&quot;&gt;&lt;font style=&quot;font-size: 13px;&quot;&gt;COMMAND IS&lt;/font&gt;&lt;/b&gt;&lt;div style=&quot;font-size: 13px;&quot;&gt;&lt;b style=&quot;&quot;&gt;&lt;font style=&quot;font-size: 13px;&quot;&gt;A PATH ?&lt;/font&gt;&lt;/b&gt;&lt;/div&gt;" style="rhombus;whiteSpace=wrap;html=1;" vertex="1" parent="WIyWlLk6GJQsqaUBKTNV-1">
          <mxGeometry x="750" y="686.25" width="160" height="157.5" as="geometry" />
        </mxCell>
        <mxCell id="e_ahyF45cDqSRZOr-uR8-57" style="edgeStyle=orthogonalEdgeStyle;rounded=0;orthogonalLoop=1;jettySize=auto;html=1;entryX=1;entryY=0.5;entryDx=0;entryDy=0;" edge="1" parent="WIyWlLk6GJQsqaUBKTNV-1" source="e_ahyF45cDqSRZOr-uR8-54" target="e_ahyF45cDqSRZOr-uR8-56">
          <mxGeometry relative="1" as="geometry" />
        </mxCell>
        <mxCell id="e_ahyF45cDqSRZOr-uR8-54" value="&lt;font style=&quot;font-size: 12px;&quot;&gt;GET ANGLE&lt;/font&gt;" style="rounded=1;whiteSpace=wrap;html=1;fontSize=12;glass=0;strokeWidth=1;shadow=0;fontFamily=Helvetica;fontStyle=1;fillColor=#FFFFFF;" vertex="1" parent="WIyWlLk6GJQsqaUBKTNV-1">
          <mxGeometry x="759.38" y="910" width="141.25" height="50" as="geometry" />
        </mxCell>
        <mxCell id="e_ahyF45cDqSRZOr-uR8-60" style="edgeStyle=orthogonalEdgeStyle;rounded=0;orthogonalLoop=1;jettySize=auto;html=1;entryX=1;entryY=0.5;entryDx=0;entryDy=0;" edge="1" parent="WIyWlLk6GJQsqaUBKTNV-1" source="e_ahyF45cDqSRZOr-uR8-56" target="e_ahyF45cDqSRZOr-uR8-59">
          <mxGeometry relative="1" as="geometry" />
        </mxCell>
        <mxCell id="e_ahyF45cDqSRZOr-uR8-56" value="&lt;font style=&quot;font-size: 12px;&quot;&gt;GET DISTANCE&lt;/font&gt;" style="rounded=1;whiteSpace=wrap;html=1;fontSize=12;glass=0;strokeWidth=1;shadow=0;fontFamily=Helvetica;fontStyle=1;fillColor=#FFFFFF;" vertex="1" parent="WIyWlLk6GJQsqaUBKTNV-1">
          <mxGeometry x="560" y="910" width="141.25" height="50" as="geometry" />
        </mxCell>
        <mxCell id="e_ahyF45cDqSRZOr-uR8-62" style="edgeStyle=orthogonalEdgeStyle;rounded=0;orthogonalLoop=1;jettySize=auto;html=1;entryX=1;entryY=0.5;entryDx=0;entryDy=0;" edge="1" parent="WIyWlLk6GJQsqaUBKTNV-1" source="e_ahyF45cDqSRZOr-uR8-59" target="e_ahyF45cDqSRZOr-uR8-61">
          <mxGeometry relative="1" as="geometry" />
        </mxCell>
        <mxCell id="e_ahyF45cDqSRZOr-uR8-59" value="&lt;font style=&quot;font-size: 12px;&quot;&gt;GET SPEED&lt;/font&gt;" style="rounded=1;whiteSpace=wrap;html=1;fontSize=12;glass=0;strokeWidth=1;shadow=0;fontFamily=Helvetica;fontStyle=1;fillColor=#FFFFFF;" vertex="1" parent="WIyWlLk6GJQsqaUBKTNV-1">
          <mxGeometry x="357.5" y="910" width="141.25" height="50" as="geometry" />
        </mxCell>
        <mxCell id="e_ahyF45cDqSRZOr-uR8-63" style="edgeStyle=orthogonalEdgeStyle;rounded=0;orthogonalLoop=1;jettySize=auto;html=1;entryX=0;entryY=0.5;entryDx=0;entryDy=0;exitX=0;exitY=0.5;exitDx=0;exitDy=0;" edge="1" parent="WIyWlLk6GJQsqaUBKTNV-1" source="e_ahyF45cDqSRZOr-uR8-61" target="e_ahyF45cDqSRZOr-uR8-29">
          <mxGeometry relative="1" as="geometry" />
        </mxCell>
        <mxCell id="e_ahyF45cDqSRZOr-uR8-61" value="&lt;font style=&quot;font-size: 12px;&quot;&gt;PERFORM PATH&lt;/font&gt;" style="rounded=1;whiteSpace=wrap;html=1;fontSize=12;glass=0;strokeWidth=1;shadow=0;fontFamily=Helvetica;fontStyle=1;fillColor=#72FF47;" vertex="1" parent="WIyWlLk6GJQsqaUBKTNV-1">
          <mxGeometry x="158.75" y="910" width="141.25" height="50" as="geometry" />
        </mxCell>
        <mxCell id="e_ahyF45cDqSRZOr-uR8-66" value="&lt;font style=&quot;font-size: 18px;&quot; color=&quot;#ff0000&quot;&gt;NO&lt;/font&gt;" style="text;html=1;align=center;verticalAlign=middle;whiteSpace=wrap;rounded=0;fontStyle=1;fontSize=18;" vertex="1" parent="WIyWlLk6GJQsqaUBKTNV-1">
          <mxGeometry x="557.5" y="843.75" width="40" height="20" as="geometry" />
        </mxCell>
        <mxCell id="e_ahyF45cDqSRZOr-uR8-67" value="&lt;font style=&quot;font-size: 18px;&quot; color=&quot;#ff0000&quot;&gt;NO&lt;/font&gt;" style="text;html=1;align=center;verticalAlign=middle;whiteSpace=wrap;rounded=0;fontStyle=1;fontSize=18;" vertex="1" parent="WIyWlLk6GJQsqaUBKTNV-1">
          <mxGeometry x="719.38" y="740" width="40" height="20" as="geometry" />
        </mxCell>
      </root>
    </mxGraphModel>
  </diagram>
</mxfile>
